<svg width="25" height="25" viewBox="0 0 25 25" fill="none" xmlns="http://www.w3.org/2000/svg">
<path d="M22.5 16.69C22.5 20.33 20.33 22.5 16.69 22.5H15.5C14.95 22.5 14.5 22.05 14.5 21.5V15.73C14.5 15.46 14.72 15.23 14.99 15.23L16.75 15.2C16.89 15.19 17.01 15.09 17.04 14.95L17.39 13.04C17.3968 12.9967 17.3941 12.9525 17.3822 12.9103C17.3702 12.8681 17.3492 12.8291 17.3207 12.7958C17.2922 12.7625 17.2568 12.7358 17.217 12.7176C17.1771 12.6993 17.1338 12.6899 17.09 12.69L14.96 12.72C14.68 12.72 14.46 12.5 14.45 12.23L14.41 9.78C14.41 9.62 14.54 9.48 14.71 9.48L17.11 9.44C17.28 9.44 17.41 9.31 17.41 9.14L17.37 6.74C17.37 6.57 17.24 6.44 17.07 6.44L14.37 6.48C13.9759 6.48599 13.5868 6.56969 13.225 6.72632C12.8633 6.88295 12.5361 7.10942 12.262 7.39276C11.988 7.6761 11.7725 8.01073 11.628 8.37748C11.4835 8.74422 11.4128 9.13588 11.42 9.53L11.47 12.28C11.48 12.56 11.26 12.78 10.98 12.79L9.78 12.81C9.61 12.81 9.48 12.94 9.48 13.11L9.51 15.01C9.51 15.18 9.64 15.31 9.81 15.31L11.01 15.29C11.29 15.29 11.51 15.51 11.52 15.78L11.61 21.48C11.62 22.04 11.17 22.5 10.61 22.5H8.31C4.67 22.5 2.5 20.33 2.5 16.68V8.31C2.5 4.67 4.67 2.5 8.31 2.5H16.69C20.33 2.5 22.5 4.67 22.5 8.31V16.69Z" fill="white"/>
</svg>
