<svg width="25" height="25" viewBox="0 0 25 25" fill="none" xmlns="http://www.w3.org/2000/svg">
<path d="M16.69 2.5H8.31C4.67 2.5 2.5 4.67 2.5 8.31V16.68C2.5 20.33 4.67 22.5 8.31 22.5H16.68C20.32 22.5 22.49 20.33 22.49 16.69V8.31C22.5 4.67 20.33 2.5 16.69 2.5ZM12.5 16.38C10.36 16.38 8.62 14.64 8.62 12.5C8.62 10.36 10.36 8.62 12.5 8.62C14.64 8.62 16.38 10.36 16.38 12.5C16.38 14.64 14.64 16.38 12.5 16.38ZM18.42 7.38C18.37 7.5 18.3 7.61 18.21 7.71C18.11 7.8 18 7.87 17.88 7.92C17.698 7.99725 17.4971 8.01853 17.303 7.98113C17.1089 7.94372 16.9303 7.84933 16.79 7.71C16.7 7.61 16.63 7.5 16.58 7.38C16.5286 7.25982 16.5015 7.13069 16.5 7C16.5 6.87 16.53 6.74 16.58 6.62C16.63 6.49 16.7 6.39 16.79 6.29C17.02 6.06 17.37 5.95 17.69 6.02C17.76 6.03 17.82 6.05 17.88 6.08C17.94 6.1 18 6.13 18.06 6.17C18.11 6.2 18.16 6.25 18.21 6.29C18.3 6.39 18.37 6.49 18.42 6.62C18.47 6.74 18.5 6.87 18.5 7C18.5 7.13 18.47 7.26 18.42 7.38Z" fill="white"/>
</svg>
