<svg width="25" height="25" viewBox="0 0 25 25" fill="none" xmlns="http://www.w3.org/2000/svg">
<path d="M22.4801 11.91C22.1401 6.10996 16.8701 1.63996 10.8001 2.63996C6.62005 3.32996 3.27005 6.71996 2.62005 10.9C2.24005 13.32 2.74005 15.61 3.83005 17.5L2.94005 20.81C2.74005 21.56 3.43005 22.24 4.17005 22.03L7.43005 21.13C8.91005 22 10.6401 22.5 12.4901 22.5C18.1301 22.5 22.8101 17.53 22.4801 11.91ZM17.3801 16.22C17.1389 16.7147 16.7269 17.1054 16.2201 17.32C15.9201 17.45 15.5901 17.51 15.2401 17.51C14.7301 17.51 14.1801 17.39 13.6101 17.14C13.0026 16.8732 12.4258 16.5413 11.8901 16.15C11.3101 15.73 10.7701 15.26 10.2501 14.75C9.73005 14.23 9.27005 13.68 8.85005 13.11C8.44005 12.54 8.11005 11.97 7.87005 11.4C7.63005 10.83 7.51005 10.28 7.51005 9.75996C7.51005 9.41996 7.57005 9.08996 7.69005 8.78996C7.81005 8.47996 8.00005 8.19996 8.27005 7.94996C8.59005 7.62996 8.94005 7.47996 9.31005 7.47996C9.45005 7.47996 9.59005 7.50996 9.72005 7.56996C9.85005 7.62996 9.97005 7.71996 10.0601 7.84996L11.2201 9.48996C11.3101 9.61996 11.3801 9.72996 11.4201 9.83996C11.4701 9.94996 11.4901 10.05 11.4901 10.15C11.4901 10.27 11.4501 10.39 11.3801 10.51C11.3101 10.63 11.2201 10.75 11.1001 10.87L10.7201 11.27C10.6601 11.33 10.6401 11.39 10.6401 11.47C10.6401 11.51 10.6501 11.55 10.6601 11.59C10.6801 11.63 10.6901 11.66 10.7001 11.69C10.7901 11.86 10.9501 12.07 11.1701 12.33C11.6382 12.8801 12.1499 13.3918 12.7001 13.86C12.9601 14.08 13.1801 14.23 13.3501 14.32C13.3801 14.33 13.4101 14.35 13.4401 14.36C13.4801 14.38 13.5201 14.38 13.5701 14.38C13.6601 14.38 13.7201 14.35 13.7801 14.29L14.1601 13.91C14.2901 13.78 14.4101 13.69 14.5201 13.63C14.6401 13.56 14.7501 13.52 14.8801 13.52C14.9801 13.52 15.0801 13.54 15.1901 13.59C15.3001 13.64 15.4201 13.7 15.5401 13.79L17.2001 14.97C17.3301 15.06 17.4201 15.17 17.4801 15.29C17.5301 15.42 17.5601 15.54 17.5601 15.68C17.5001 15.85 17.4601 16.04 17.3801 16.22Z" fill="white"/>
</svg>
