<svg width="174" height="206" viewBox="0 0 174 206" fill="none" xmlns="http://www.w3.org/2000/svg">
<g clip-path="url(#clip0_110_287)">
<path d="M74.3746 197.385C56.2814 188.436 43.8886 173.965 32.6788 158.412C21.5799 143.014 13.6754 125.973 8.50785 107.05C9.17006 101.202 7.29363 96.3233 6.59746 91.2971C4.92397 79.215 7.57758 68.3395 11.6464 56.6578C15.905 44.4315 22.9021 35.4762 31.9432 26.4139C34.6222 25.2759 36.5472 24.215 38.535 22.0124C52.5067 11.7473 68.4563 11.8223 84.645 10.381C87.5235 11.051 89.7737 10.7589 92.6617 10.8522C109.61 14.3672 122.406 23.2595 132.4 36.3839C134.638 39.322 136.555 42.5059 139.738 45.521C140.796 47.1983 141.172 48.4599 141.568 50.406C152.198 76.9412 146.97 101.802 136.129 125.97C125.24 150.244 110.8 172.206 90.6739 189.999C86.234 193.924 82.0442 198.738 74.3746 197.385Z" fill="#E94040"/>
<path d="M74.3203 197.862C88.3956 193.404 97.3851 181.7 106.082 170.887C123.32 149.456 136.844 125.705 143.025 98.3814C146.575 82.6889 145.953 67.4441 139.49 51.9288C141.727 49.1589 136.941 48.9351 140.261 47.2944C138.611 46.0945 138.656 45.8925 138.885 46.8557C138.254 45.9231 138.885 45.8145 138.885 45.8145C138.885 45.8145 142.249 45.3007 139.425 46.5605C133.503 44.6558 132.425 38.9647 129.147 35.1406C119.942 24.4003 108.343 17.3718 94.8054 12.156C97.2925 9.93047 100.507 11.3029 104.147 10.5205C105.642 10.3332 106.516 10.3889 107.882 10.8886C110.323 12.9186 112.84 12.2361 115.567 13.0872C116.138 13.1794 116.539 12.9514 116.713 13.104C118.005 14.7606 119.737 14.0791 121.676 14.7529C122.181 15.0463 122.079 15.1112 122.077 15.051C122.75 15.8984 123.806 15.9933 125.252 16.4714C125.72 16.6849 125.579 16.7437 125.568 16.6678C126.183 17.6462 127.3 17.714 128.808 18.2079C154.742 29.5642 171.595 62.6945 166.363 91.0902C161.335 118.377 149.394 142.636 132.678 164.357C125.174 174.108 117.716 184.202 107.66 191.893C97.6504 199.549 87.0514 202.421 74.3203 197.862Z" fill="black"/>
<path d="M34.5621 26.8347C25.0665 35.8416 14.9008 43.8848 15.1346 58.251C15.1952 61.9757 11.1832 62.2707 9.72524 65.2659C4.77619 75.4328 7.16503 85.3436 9.01026 95.3439C9.64005 98.7571 10.4981 101.994 8.98666 105.903C-7.8687 59.8093 23.3082 12.4293 72.0723 9.84404C76.3342 9.6181 80.5924 9.32453 85.3659 9.45422C86.1562 10.0892 86.433 10.3323 86.4303 11.052C78.9271 13.254 71.5965 13.7501 64.1977 13.3983C54.7712 12.9501 48.5025 20.564 39.7196 23.2589C37.9363 24.7663 36.4351 25.6139 34.5621 26.8347Z" fill="#E94040"/>
<path d="M86.834 11.5228C86.1509 11.5288 85.9933 10.691 85.9364 10.2686C91.6623 9.87487 97.4451 9.90362 103.998 10.1048C102.08 12.7106 98.792 11.3004 95.0929 11.6927C92.1075 11.6428 89.8123 11.5799 86.834 11.5228Z" fill="black"/>
<path d="M115.742 12.7138C113.712 13.1158 111.156 14.1935 108.653 11.8458C110.698 11.6377 113.022 11.9429 115.742 12.7138Z" fill="black"/>
<path d="M121.817 14.58C120.645 14.7728 119.109 14.4994 117.23 13.7412C118.409 13.5423 119.931 13.828 121.817 14.58Z" fill="black"/>
<path d="M129.002 17.97C128.232 18.1575 127.171 17.8724 125.834 17.0895C126.609 16.8936 127.659 17.1955 129.002 17.97Z" fill="black"/>
<path d="M125.428 16.2333C124.691 16.434 123.663 16.183 122.354 15.4614C123.095 15.2545 124.116 15.5181 125.428 16.2333Z" fill="black"/>
<path d="M86.7421 54.4126C101.067 58.6943 108.347 69.0057 108.326 83.9918C108.307 97.4946 100.925 107.993 88.2097 111.79C79.7357 112.299 75.773 106.672 72.0125 101.341C60.2037 84.6001 67.5667 60.3662 86.7421 54.4126Z" fill="white"/>
<path d="M86.8882 53.9787C62.9778 65.2841 61.9356 99.2815 87.0222 111.633C77.2718 118.914 59.1306 113.502 51.4042 101.18C44.1664 89.6369 44.0686 77.9415 51.1014 66.4541C59.3358 53.0038 72.2281 51.4037 86.8882 53.9787Z" fill="black"/>
<path d="M65.584 30.5274C61.3325 30.7268 58.2808 29.7232 58.2467 24.37C60.6181 21.22 63.3801 21.7959 66.6182 23.2674C67.9213 24.9377 68.2151 26.2618 67.3693 28.3186C66.6475 29.3826 66.3066 29.8476 65.584 30.5274Z" fill="#E94040"/>
<path d="M46.6401 46.0227C46.3955 43.5337 47.6111 41.7322 50.7477 40.9709C51.3255 43.679 50.1134 45.4984 46.6401 46.0227Z" fill="#E94040"/>
<path d="M67.5514 28.8238C66.9901 27.6175 66.9919 26.3173 67.0188 24.3669C70.6166 24.701 71.7 26.2169 67.5514 28.8238Z" fill="#E94040"/>
<path d="M34.712 27.1205C34.9579 25.3755 36.2061 24.1384 38.7616 23.7722C38.5486 25.5473 37.2953 26.7821 34.712 27.1205Z" fill="#E94040"/>
<path d="M41.5326 51.2061C41.1624 49.7298 41.6688 48.4112 43.8785 47.8035C44.3936 49.3344 44.0091 50.7463 41.5326 51.2061Z" fill="#E94040"/>
<path d="M26.9845 44.6704C27.1213 45.3698 26.8016 46.3482 26.0485 47.6218C25.9195 46.9278 26.2236 45.9386 26.9845 44.6704Z" fill="#E94040"/>
<path d="M25.1736 48.1914C25.3364 48.8873 25.0488 49.8692 24.3517 51.1757C24.2025 50.4926 24.4628 49.485 25.1736 48.1914Z" fill="#E94040"/>
</g>
<defs>
<clipPath id="clip0_110_287">
<rect width="174" height="206" fill="white"/>
</clipPath>
</defs>
</svg>
