<svg width="46" height="36" viewBox="0 0 46 36" fill="none" xmlns="http://www.w3.org/2000/svg">
<g clip-path="url(#clip0_95_367)">
<path d="M23.1144 0.492198C21.1985 0.489735 19.3082 0.933939 17.593 1.78971L19.3531 5.30736C21.1419 4.40367 23.1925 4.16581 25.1399 4.63613C27.0873 5.10646 28.8049 6.25444 29.9868 7.87561C31.1687 9.49678 31.7381 11.4859 31.5938 13.4886C31.4494 15.4913 30.6005 17.3777 29.1984 18.8117C27.7962 20.2456 25.9318 21.1341 23.9372 21.3189C21.9426 21.5036 19.9474 20.9727 18.3068 19.8206C16.6663 18.6684 15.487 16.97 14.9789 15.0277C14.4709 13.0854 14.6671 11.0253 15.5326 9.21452L11.9583 7.48106C10.7779 9.90882 10.4178 12.6558 10.9325 15.3068C11.4471 17.9579 12.8085 20.369 14.811 22.1758C16.8135 23.9827 19.3482 25.0871 22.0322 25.3222C24.7162 25.5573 27.4036 24.9103 29.6884 23.479C31.9731 22.0477 33.7311 19.9098 34.6966 17.3884C35.6621 14.867 35.7828 12.0991 35.0403 9.50291C34.2978 6.90672 32.7325 4.62331 30.581 2.9977C28.4295 1.3721 25.8086 0.492636 23.1144 0.492198Z" fill="white"/>
<path d="M23.2182 7.604C22.3756 7.60351 21.545 7.80392 20.795 8.1887L23.1539 12.911L18.4181 10.6152C17.9126 11.6587 17.7596 12.8387 17.982 13.977C18.2045 15.1154 18.7904 16.1503 19.6513 16.9254C20.5121 17.7005 21.6013 18.1738 22.7541 18.2738C23.907 18.3738 25.061 18.095 26.0419 17.4796C27.0228 16.8641 27.7773 15.9455 28.1914 14.8623C28.6056 13.7792 28.6569 12.5903 28.3377 11.4754C28.0184 10.3604 27.3459 9.37984 26.4218 8.68176C25.4976 7.98367 24.3719 7.60598 23.2148 7.60572L23.2182 7.604Z" fill="white"/>
<path d="M7.30153 29.0134V35.0255H5.84334V31.4201L4.49922 35.0255H3.3198L1.96711 31.4116V35.0229H0.508911V29.0134H2.23473L3.91766 33.1751L5.58429 29.0134H7.30153Z" fill="white"/>
<path d="M11.7782 33.9636H10.1553C10.0657 33.9635 9.97824 33.9915 9.90531 34.0438C9.83238 34.0961 9.77764 34.17 9.74877 34.2551L9.49144 35.0289H7.95947L10.1296 29.0168H11.8211L13.9913 35.0289H12.4473L12.19 34.2551C12.1608 34.1691 12.1053 34.0946 12.0313 34.0423C11.9574 33.9899 11.8688 33.9624 11.7782 33.9636ZM11.7105 32.8329L10.9668 30.6316L10.2317 32.8329H11.7105Z" fill="white"/>
<path d="M18.5537 29.39C19.0139 29.6289 19.3952 29.9962 19.6516 30.4476C19.9072 30.9312 20.0407 31.4701 20.0407 32.0173C20.0407 32.5645 19.9072 33.1034 19.6516 33.5869C19.3954 34.0411 19.0123 34.4102 18.5494 34.6488C18.0376 34.9084 17.47 35.0378 16.8965 35.0255H14.6492V29.0134H16.8965C17.4714 29.0001 18.0407 29.1295 18.5537 29.39ZM18.0931 33.304C18.4007 33.0014 18.5546 32.5732 18.5546 32.0194C18.5546 31.4657 18.4007 31.0358 18.0931 30.7296C17.786 30.4207 17.3571 30.2665 16.8064 30.267H16.1142V33.7615H16.8064C17.356 33.7592 17.7849 33.6067 18.0931 33.304Z" fill="white"/>
<path d="M24.7656 29.39C25.2256 29.6291 25.6069 29.9964 25.8636 30.4476C26.1191 30.9312 26.2527 31.4701 26.2527 32.0173C26.2527 32.5645 26.1191 33.1034 25.8636 33.5869C25.6068 34.0407 25.2238 34.4097 24.7613 34.6488C24.2492 34.9084 23.6813 35.0378 23.1076 35.0254H20.8611V29.0134H23.1076C23.6827 29.0002 24.2523 29.1295 24.7656 29.39ZM24.3041 33.304C24.6112 33.0014 24.765 32.5731 24.7656 32.0194C24.7662 31.4657 24.6124 31.0357 24.3041 30.7296C23.9959 30.4207 23.567 30.2665 23.0175 30.267H22.3219V33.7615H23.0141C23.5648 33.7592 23.9948 33.6067 24.3041 33.304Z" fill="white"/>
<path d="M28.5329 29.0134V35.0255H27.0747V29.0134H28.5329Z" fill="white"/>
<path d="M33.0181 33.9636H31.3952C31.3056 33.9635 31.2181 33.9915 31.1452 34.0438C31.0723 34.0961 31.0175 34.17 30.9886 34.2551L30.7313 35.0289H29.1993L31.3695 29.0168H33.061L35.232 35.0289H33.688L33.4307 34.2551C33.4015 34.169 33.3458 34.0944 33.2717 34.042C33.1976 33.9897 33.1088 33.9622 33.0181 33.9636ZM32.9495 32.8329L32.2058 30.6316L31.4741 32.8329H32.9495Z" fill="white"/>
<path d="M40.2233 31.9034C40.0519 32.2034 39.7962 32.4462 39.4882 32.6016C39.1577 32.7787 38.7477 32.8673 38.2582 32.8673H37.3507V35.0255H35.8925V29.0135H38.259C38.677 29.0007 39.0922 29.0855 39.4719 29.2611C39.7831 29.4102 40.0423 29.6499 40.2156 29.949C40.3845 30.2556 40.47 30.6014 40.4635 30.9516C40.466 31.2842 40.3833 31.612 40.2233 31.9034ZM38.7651 31.5053C38.8969 31.3499 38.9692 31.1525 38.9692 30.9485C38.9692 30.7446 38.8969 30.5472 38.7651 30.3918C38.6287 30.2611 38.422 30.1949 38.1415 30.1949H37.3472V31.7048H38.1415C38.422 31.7048 38.6321 31.6369 38.7651 31.5053Z" fill="white"/>
<path d="M45.5526 31.9034C45.3814 32.2036 45.1257 32.4464 44.8175 32.6016C44.4876 32.7787 44.0776 32.8673 43.5875 32.8673H42.6817V35.0255H41.2235V29.0135H43.5901C44.0083 29.0007 44.4238 29.0855 44.8038 29.2611C45.1149 29.4101 45.3739 29.6499 45.5466 29.949C45.7159 30.2554 45.8014 30.6013 45.7945 30.9516C45.797 31.2844 45.7137 31.6123 45.5526 31.9034ZM44.1004 31.5053C44.2322 31.3499 44.3045 31.1525 44.3045 30.9485C44.3045 30.7446 44.2322 30.5472 44.1004 30.3918C43.9632 30.2611 43.7573 30.1949 43.4769 30.1949H42.6817V31.7048H43.4769C43.7559 31.7048 43.9638 31.6383 44.1004 31.5053Z" fill="white"/>
</g>
<defs>
<clipPath id="clip0_95_367">
<rect width="45.283" height="34.5333" fill="white" transform="translate(0.508911 0.492188)"/>
</clipPath>
</defs>
</svg>
