<svg width="88" height="88" viewBox="0 0 88 88" fill="none" xmlns="http://www.w3.org/2000/svg">
<path d="M79.8161 41.8178C78.5939 20.9674 59.6488 4.89829 37.8278 8.49318C22.8012 10.9737 10.7583 23.1603 8.42165 38.187C7.05559 46.8866 8.85304 55.1189 12.7715 61.9132L9.57202 73.8123C8.85304 76.5085 11.3335 78.953 13.9937 78.1981L25.7131 74.9627C31.0335 78.0902 37.2527 79.8877 43.9032 79.8877C64.1784 79.8877 81.0025 62.0211 79.8161 41.8178ZM61.4822 57.3118C60.6153 59.0902 59.134 60.4948 57.3121 61.2662C56.2337 61.7335 55.0474 61.9492 53.7892 61.9492C51.9558 61.9492 49.9786 61.5178 47.9295 60.6191C45.7456 59.6602 43.6724 58.4669 41.7463 57.0601C39.6612 55.5503 37.72 53.8607 35.8507 52.0273C33.9813 50.158 32.3277 48.1808 30.8178 46.1317C29.3439 44.0826 28.1576 42.0335 27.2948 39.9844C26.432 37.9353 26.0007 35.9581 26.0007 34.0888C26.0007 32.8665 26.2164 31.6802 26.6477 30.6018C27.0791 29.4873 27.7622 28.4808 28.7328 27.582C29.8831 26.4317 31.1414 25.8924 32.4715 25.8924C32.9747 25.8924 33.478 26.0003 33.9454 26.216C34.4127 26.4317 34.8441 26.7552 35.1676 27.2226L39.3377 33.1182C39.6612 33.5855 39.9129 33.9809 40.0567 34.3764C40.2364 34.7718 40.3083 35.1313 40.3083 35.4908C40.3083 35.9222 40.1645 36.3536 39.9129 36.785C39.6612 37.2164 39.3377 37.6477 38.9063 38.0791L37.5403 39.5171C37.3246 39.7328 37.2527 39.9485 37.2527 40.2361C37.2527 40.3799 37.2886 40.5236 37.3246 40.6674C37.3965 40.8112 37.4324 40.9191 37.4684 41.0269C37.7919 41.6381 38.3671 42.393 39.158 43.3277C40.841 45.3055 42.6803 47.1448 44.6581 48.8278C45.5928 49.6187 46.3837 50.158 46.9948 50.4815C47.1027 50.5174 47.2105 50.5893 47.3184 50.6253C47.4621 50.6972 47.6059 50.6972 47.7857 50.6972C48.1092 50.6972 48.3249 50.5893 48.5406 50.3736L49.9067 49.0076C50.374 48.5403 50.8054 48.2167 51.2008 48.001C51.6322 47.7494 52.0277 47.6056 52.495 47.6056C52.8545 47.6056 53.214 47.6775 53.6094 47.8572C54.0048 48.037 54.4362 48.2527 54.8676 48.5762L60.8351 52.8182C61.3025 53.1417 61.626 53.5371 61.8417 53.9685C62.0215 54.4359 62.1293 54.8673 62.1293 55.3705C61.9136 55.9817 61.7698 56.6647 61.4822 57.3118Z" fill="#39BE46"/>
</svg>
