<svg width="76" height="76" viewBox="0 0 76 76" fill="none" xmlns="http://www.w3.org/2000/svg">
<path d="M38.3077 0.89895C32.3631 0.892218 26.503 2.30127 21.2153 5.00878L37.8708 38.0961L4.45966 22.0288C0.895899 29.3512 -0.181063 37.6308 1.3914 45.6171C2.96386 53.6035 7.10035 60.863 13.1763 66.2995C19.2522 71.736 26.9376 75.0544 35.0721 75.7535C43.2066 76.4526 51.3484 74.4944 58.2681 70.1747C65.1878 65.8551 70.5098 59.4084 73.4303 51.8082C76.3508 44.208 76.7114 35.8669 74.4575 28.0444C72.2036 20.222 67.4577 13.3429 60.9363 8.44588C54.415 3.5489 46.4723 0.899926 38.3077 0.89895V0.89895Z" fill="#233D4F"/>
</svg>
