<svg width="176" height="109" viewBox="0 0 176 109" fill="none" xmlns="http://www.w3.org/2000/svg">
<rect x="0.491455" y="0.0174561" width="175.443" height="108" rx="21" fill="white"/>
<g clip-path="url(#clip0_10_81)">
<path d="M103.238 22.5234H132.158C135.624 22.5234 138.44 25.3396 138.44 28.8057V35.7379" stroke="black" stroke-width="3" stroke-miterlimit="10" stroke-linecap="round" stroke-linejoin="round"/>
<path d="M109.845 15.9162L103.238 22.5234L109.845 29.1307M138.44 51.1187H109.52C106.054 51.1187 103.238 48.3025 103.238 44.8364V37.9042" stroke="black" stroke-width="3" stroke-miterlimit="10" stroke-linecap="round" stroke-linejoin="round"/>
<path d="M131.838 57.7259L138.445 51.1187L131.838 44.5114" stroke="black" stroke-width="3" stroke-miterlimit="10" stroke-linecap="round" stroke-linejoin="round"/>
</g>
<g clip-path="url(#clip1_10_81)">
<path d="M35.6718 34.3669C35.715 30.4519 35.6749 26.5336 35.8268 22.6228C35.9581 19.242 38.8044 16.4317 42.1797 16.2049C44.1556 16.0722 46.141 16.0457 48.1223 16.0389C52.8291 16.0227 57.536 16.0466 62.3126 16.1268C62.4149 17.6644 62.4474 19.1294 62.4405 20.6574C62.4254 22.2231 62.4496 23.7259 62.4518 25.2951C62.4399 26.8244 62.4499 28.2873 62.4262 29.8183C62.383 31.3647 62.3734 32.843 62.2942 34.3327C61.8441 34.3521 61.4635 34.3673 61.083 34.3673C52.9587 34.3684 44.8343 34.3671 36.7099 34.3696C36.4074 34.3697 36.1049 34.4023 35.7729 34.3988C35.7433 34.3779 35.6718 34.3669 35.6718 34.3669ZM42.5095 26.4975C42.4507 26.4291 42.3918 26.3606 42.3592 26.2751C42.3592 26.2751 42.3378 26.2978 42.3472 26.1786C42.0565 26.0633 41.7329 25.8053 41.482 25.863C40.9947 25.9751 40.7624 26.3856 40.8549 26.9793C40.8549 26.9793 40.8254 27.032 40.7253 27.08C40.215 27.2235 39.6814 27.3154 39.2039 27.5314C38.9488 27.6467 38.7435 27.9537 38.6159 28.2219C38.576 28.3056 38.8632 28.5451 39.0369 28.7423C39.0369 28.7423 39.0445 28.7881 39.0515 28.8852C39.103 28.9177 39.1546 28.9502 39.2029 28.9719C39.2029 28.9719 39.2143 28.972 39.1881 29.0852C39.3449 29.2039 39.5017 29.3226 39.6352 29.4775C39.6352 29.4775 39.6567 29.4412 39.632 29.58C39.5817 29.9748 39.4435 30.384 39.5055 30.7602C39.569 31.1454 39.8285 31.4983 40.0022 31.8654C40.1779 31.7768 40.3536 31.6882 40.535 31.6132C40.535 31.6132 40.5233 31.6042 40.6193 31.6099C40.6922 31.5575 40.7651 31.5051 40.841 31.4632C40.841 31.4632 40.8328 31.4559 40.9541 31.4638C41.3286 31.3581 41.703 31.2523 42.0652 31.1547C42.0652 31.1547 42.072 31.1417 42.1083 31.2395C42.2573 31.2988 42.4062 31.3581 42.5146 31.4399C42.5146 31.4399 42.5532 31.4139 42.5893 31.5191C42.6936 31.5402 42.7978 31.5612 42.982 31.5762C43.0333 31.5905 43.0846 31.6047 43.2045 31.6999C43.9589 31.7989 44.1171 31.1952 43.9971 30.7579C43.7889 29.9992 44.0148 29.5319 44.5404 29.0323C44.9133 28.6778 45.0662 28.1935 44.5079 27.798C44.5079 27.798 44.5006 27.8086 44.4903 27.6952C43.8772 27.4298 43.264 27.1644 42.6555 26.8811C42.6555 26.8811 42.6562 26.8995 42.6649 26.8011C42.6082 26.7304 42.5514 26.6596 42.5131 26.5808C42.5131 26.5808 42.5005 26.5964 42.5095 26.4975ZM52.2895 20.5512C52.0747 20.3681 51.8697 20.0427 51.6434 20.0271C50.814 19.97 50.3126 19.6177 49.9994 18.827C49.7458 18.1866 49.0581 18.1657 48.8152 18.7896C48.4943 19.6139 47.9691 19.9482 47.1187 20.0251C46.4782 20.0831 46.2518 20.6966 46.7301 21.1205C47.3911 21.7062 47.5866 22.3148 47.426 23.1779C47.3077 23.8138 47.7722 24.1402 48.3045 23.8256C49.0611 23.3787 49.7167 23.3654 50.4747 23.8187C50.9804 24.1211 51.4803 23.816 51.3635 23.2625C51.1604 22.3005 51.4403 21.6077 52.1603 21.014C52.2429 20.9459 52.2494 20.7856 52.2895 20.5512ZM39.8264 21.9146C39.8044 22.3381 39.7676 22.7614 39.7639 23.1851C39.7578 23.8662 40.1815 24.1754 40.7336 23.8078C41.4447 23.3343 42.0478 23.379 42.763 23.7863C43.3937 24.1455 43.8767 23.8283 43.7313 23.1187C43.5563 22.2646 43.7987 21.6884 44.3983 21.1101C44.892 20.6339 44.7156 20.1032 44.0474 20.0312C43.2042 19.9403 42.6589 19.627 42.3375 18.7915C42.1013 18.1777 41.4428 18.1678 41.1945 18.7701C40.8488 19.6087 40.3073 19.969 39.4236 20.0313C38.8683 20.0704 38.6916 20.5882 39.0257 21.0498C39.2314 21.3341 39.5122 21.5641 39.8264 21.9146ZM56.1259 23.753C56.7638 23.2686 57.3623 23.3971 58.0101 23.7869C58.603 24.1437 59.1303 23.8647 59.005 23.2363C58.8201 22.3084 59.056 21.6614 59.7459 21.0359C60.1601 20.6604 59.9344 20.0805 59.3764 20.0313C58.5099 19.9549 57.937 19.6429 57.6015 18.7799C57.3652 18.1721 56.6965 18.175 56.4595 18.7834C56.1366 19.6124 55.6054 19.9435 54.7554 20.0305C54.0794 20.0996 53.8993 20.6242 54.3898 21.1035C54.9811 21.6814 55.242 22.2503 55.0624 23.1079C54.9111 23.8302 55.2686 24.032 56.1259 23.753ZM58.9944 27.6165C58.3432 27.5658 57.9556 27.2227 57.7054 26.6136C57.6001 26.3574 57.2548 26.0341 57.0262 26.0399C56.7892 26.046 56.4546 26.3709 56.3506 26.6314C56.0926 27.2778 55.6711 27.5643 54.9918 27.6349C54.7083 27.6643 54.2998 27.8665 54.2194 28.0884C54.139 28.3105 54.3163 28.7483 54.5228 28.928C55.0575 29.3933 55.2292 29.8613 55.0757 30.5849C54.8819 31.4988 55.3301 31.8123 56.1483 31.376C56.7579 31.051 57.2773 30.9296 57.8973 31.3514C58.1179 31.5014 58.5956 31.5521 58.7716 31.4137C58.9635 31.2627 59.0732 30.7953 58.9882 30.5438C58.7372 29.8012 59.1139 29.3638 59.5592 28.8836C59.7424 28.686 59.9475 28.2933 59.8659 28.119C59.7587 27.8902 59.3781 27.7894 58.9944 27.6165ZM52.1733 28.6291C52.4453 28.0122 52.1871 27.6947 51.5719 27.6391C50.8651 27.5751 50.334 27.3436 50.0692 26.6022C49.9784 26.348 49.6154 26.0278 49.3831 26.0329C49.1465 26.038 48.8023 26.3642 48.7079 26.6236C48.4512 27.3284 47.9575 27.5519 47.2723 27.6396C46.4329 27.7471 46.2201 28.3088 46.8366 28.8744C47.4018 29.393 47.5874 29.8939 47.4378 30.6594C47.2784 31.4753 47.7507 31.8094 48.4458 31.4045C49.112 31.0166 49.6635 30.9994 50.3352 31.3981C51.0231 31.8065 51.5323 31.4958 51.3542 30.7508C51.1343 29.8314 51.4733 29.2549 52.1733 28.6291Z" fill="#21B0F3"/>
<path d="M35.6566 48.0852C35.6559 46.6208 35.6552 45.1565 35.7264 43.6173C35.9765 43.5394 36.1546 43.5336 36.3328 43.5336C53.2868 43.5334 70.2407 43.5333 87.1947 43.5348C87.8308 43.5348 88.467 43.5502 89.1031 43.5584C89.1064 45.0227 89.1097 46.4869 89.0391 48.0283C88.8125 48.1084 88.6598 48.1139 88.5071 48.1139C71.1444 48.1143 53.7817 48.1143 36.4189 48.113C36.1648 48.1129 35.9107 48.0948 35.6566 48.0852Z" fill="#FC4C4D"/>
<path d="M35.673 48.1423C35.9109 48.0948 36.165 48.1129 36.4191 48.113C53.7819 48.1143 71.1446 48.1143 88.5073 48.1139C88.66 48.1139 88.8127 48.1084 89.0362 48.0984C89.0592 48.6569 89.0381 49.2262 88.958 49.7871C88.8218 50.7409 88.6486 51.6893 88.4135 52.6864C88.108 52.7199 87.8799 52.6958 87.6518 52.6958C70.7839 52.6945 53.916 52.6949 37.0481 52.6983C36.7957 52.6984 36.5433 52.7391 36.291 52.7608C35.7479 51.2855 35.6872 49.7466 35.673 48.1423Z" fill="white"/>
<path d="M36.2924 52.7693C36.5435 52.7391 36.7958 52.6984 37.0482 52.6983C53.9161 52.6949 70.784 52.6945 87.652 52.6958C87.8801 52.6959 88.1081 52.7199 88.4039 52.7494C88.4715 52.766 88.472 52.7777 88.4358 52.8207C88.0189 53.5018 87.6383 54.14 87.2576 54.7782C85.5104 56.6285 83.2776 57.2395 80.8309 57.2529C76.5309 57.2765 72.2308 57.2786 67.9307 57.2803C60.2718 57.2833 52.613 57.2865 44.9541 57.2698C43.9398 57.2676 42.9137 57.2255 41.9139 57.069C39.568 56.7019 37.7517 55.5116 36.5654 53.3103C36.5094 53.181 36.4737 53.147 36.4222 53.1296C36.4222 53.1296 36.419 53.0601 36.4013 52.9889C36.3495 52.875 36.3155 52.8324 36.2814 52.7897C36.2814 52.7897 36.2937 52.7778 36.2924 52.7693Z" fill="#FC4C4D"/>
<path d="M35.8026 34.4198C36.105 34.4023 36.4075 34.3697 36.71 34.3696C44.8344 34.3672 52.9588 34.3684 61.0832 34.3673C61.4637 34.3673 61.8442 34.3522 62.3389 34.358C62.4858 34.3819 62.5185 34.3918 62.5995 34.4403C65.5731 34.4923 68.4984 34.5138 71.4236 34.5175C76.5394 34.5239 81.6552 34.5179 86.771 34.5203C88.0297 34.5208 87.8824 34.4128 87.8964 35.6056C87.899 35.8263 87.9378 36.0466 87.9598 36.2671C88.0406 36.2602 88.1213 36.2534 88.2021 36.2465C88.2021 35.8011 88.174 35.3528 88.2186 34.9119C88.2326 34.7735 88.4373 34.5604 88.5636 34.5539C88.6887 34.5475 88.9341 34.7539 88.939 34.8746C88.9726 35.697 88.9566 36.5215 88.9566 37.1937C88.5607 37.2827 88.3134 37.3383 88.0662 37.3939C88.08 37.4809 88.0939 37.5679 88.1077 37.6549C88.3703 37.7029 88.6329 37.751 88.9053 37.8008C88.9053 38.1342 88.9053 38.4235 88.9053 38.7952C88.4757 38.7952 88.0909 38.842 87.7274 38.7745C87.5578 38.743 87.4293 38.4902 87.3426 38.3378C87.5945 38.313 87.786 38.2882 87.9775 38.2634C87.9427 38.1697 87.908 38.076 87.8733 37.9823C87.6763 38.1009 87.4793 38.2194 87.2106 38.338C72.3816 38.3381 57.6241 38.3381 42.8667 38.3381C40.8057 38.3381 38.7448 38.338 36.6838 38.3383C36.3468 38.3383 36.0098 38.3403 35.6728 38.3413C35.6663 38.2709 35.6598 38.2004 35.7042 38.0294C35.7709 36.7591 35.7867 35.5894 35.8026 34.4198Z" fill="#FD4C4D"/>
<path d="M35.6492 42.3095C35.6492 41.232 35.6492 40.1546 35.7225 39.0128C52.7007 38.9486 69.6056 38.9492 86.5106 38.9482C87.3758 38.9481 88.2411 38.9343 89.1064 38.9269C89.1086 40.2617 89.1107 41.5966 89.0505 43.0105C88.2895 43.1859 87.591 43.3653 86.8922 43.3661C73.1785 43.3827 59.4647 43.3784 45.751 43.3784C42.7741 43.3784 39.7972 43.3868 36.8206 43.3651C36.5309 43.3629 36.2425 43.1745 35.9675 43.012C36.287 42.8903 36.5925 42.7757 36.8981 42.7756C53.2977 42.7669 69.6974 42.7679 86.097 42.7678C86.3259 42.7678 86.5774 42.8257 86.7771 42.7491C86.9728 42.6741 87.1159 42.4616 87.2681 42.2489C86.9484 42.1269 86.6427 42.012 86.3369 42.0118C69.918 42.0031 53.499 42.0041 37.0801 42.0045C36.8511 42.0045 36.6154 41.9787 36.396 42.0261C36.2844 42.0502 36.2022 42.2106 36.0495 42.3095C35.8779 42.3095 35.7635 42.3095 35.6492 42.3095Z" fill="white"/>
<path d="M62.4598 29.7503C62.4498 28.2874 62.4398 26.8245 62.5149 25.2898C68.7189 25.212 74.8378 25.2026 80.9568 25.2014C83.6733 25.2009 86.3898 25.2169 89.1063 25.2254C89.1077 26.6896 89.1092 28.1539 89.0378 29.6945C80.2564 29.7741 71.5478 29.7776 62.8392 29.7796C62.7128 29.7796 62.5863 29.7605 62.4598 29.7503Z" fill="#FB4C4D"/>
<path d="M89.1087 25.1589C86.39 25.2169 83.6735 25.2009 80.957 25.2014C74.8381 25.2026 68.7191 25.212 62.537 25.2234C62.4498 23.7259 62.4256 22.2231 62.5034 20.6607C71.1946 20.6054 79.7839 20.6099 88.3732 20.6143C88.5697 21.3564 88.8221 22.0892 88.9469 22.8431C89.0692 23.5817 89.0615 24.3419 89.1087 25.1589Z" fill="white"/>
<path d="M88.3748 20.5571C79.7837 20.6099 71.1944 20.6054 62.5425 20.5977C62.4474 19.1294 62.4149 17.6644 62.3845 16.1296C68.7091 16.0644 75.032 16.0268 81.3538 16.0931C84.0792 16.1216 86.4235 17.0887 87.9259 19.5422C88.109 19.8412 88.2279 20.1797 88.3748 20.5571Z" fill="#FB4D4E"/>
<path d="M89.1139 31.6161C89.1142 32.4341 89.1145 33.252 89.0427 34.1413C80.2096 34.2126 71.4485 34.2126 62.6873 34.141C62.6873 33.1576 62.6873 32.2457 62.6873 31.3952C63.2683 31.4905 63.6511 31.6077 64.0342 31.6082C71.7834 31.6189 79.5326 31.6162 87.2912 31.6692C87.5579 32.0243 87.7644 32.0407 87.9602 31.6165C88.39 31.6163 88.752 31.6162 89.1139 31.6161Z" fill="white"/>
<path d="M87.282 31.6162C79.5327 31.6162 71.7835 31.6189 64.0343 31.6082C63.6512 31.6077 63.2684 31.4906 62.6873 31.3952C62.6873 32.2457 62.6873 33.1576 62.6551 34.1555C62.5816 34.2677 62.5516 34.3033 62.5368 34.3618C62.541 34.3753 62.5511 34.4018 62.5511 34.4018C62.5184 34.3919 62.4858 34.3819 62.4085 34.3466C62.3735 32.843 62.383 31.3647 62.4262 29.8184C62.5864 29.7605 62.7129 29.7796 62.8394 29.7795C71.5479 29.7776 80.2565 29.7741 89.0359 29.7644C89.1096 30.3304 89.1125 30.9026 89.1147 31.5455C88.7521 31.6162 88.3901 31.6163 87.8993 31.6165C87.6076 31.6164 87.4448 31.6163 87.282 31.6162Z" fill="white"/>
<path d="M89.11 38.8569C88.2413 38.9343 87.376 38.9481 86.5107 38.9482C69.6057 38.9492 52.7008 38.9486 35.7251 38.9402C35.6525 38.7739 35.6508 38.6158 35.6609 38.3995C36.0098 38.3403 36.3467 38.3383 36.6837 38.3383C38.7447 38.338 40.8057 38.3381 42.8666 38.3381C57.6241 38.3381 72.3815 38.3381 87.2106 38.3379C87.2822 38.3378 87.2822 38.3377 87.2822 38.3377C87.4293 38.4902 87.5577 38.743 87.7273 38.7745C88.0909 38.842 88.4757 38.7952 88.9052 38.7952C88.9052 38.4235 88.9052 38.1342 88.9052 37.8008C88.6328 37.751 88.3702 37.7029 88.1077 37.6549C88.0938 37.5679 88.08 37.4809 88.0661 37.3939C88.3134 37.3383 88.5606 37.2827 88.9565 37.1937C88.9565 36.5215 88.9725 35.697 88.9389 34.8746C88.934 34.7539 88.6887 34.5475 88.5635 34.5539C88.4372 34.5604 88.2326 34.7735 88.2186 34.912C88.1739 35.3528 88.202 35.8011 88.202 36.2465C88.1213 36.2534 88.0405 36.2602 87.9597 36.2671C87.9377 36.0466 87.899 35.8263 87.8964 35.6056C87.8823 34.4128 88.0296 34.5208 86.771 34.5203C81.6552 34.5179 76.5394 34.5239 71.4236 34.5175C68.4983 34.5138 65.5731 34.4923 62.5994 34.4403C62.5511 34.4018 62.541 34.3753 62.6079 34.3701C66.915 34.3658 71.1552 34.3644 75.3953 34.3683C79.9652 34.3725 84.5352 34.3817 89.1051 34.3887C89.1079 35.8548 89.1107 37.3209 89.11 38.8569Z" fill="#F5514A"/>
<path d="M87.2821 42.3094C87.1159 42.4616 86.9729 42.674 86.7771 42.7491C86.5774 42.8256 86.3259 42.7678 86.0971 42.7678C69.6974 42.7679 53.2978 42.7669 36.8981 42.7756C36.5926 42.7757 36.2871 42.8903 35.9169 43.0122C35.7848 43.0732 35.7173 43.0736 35.6498 43.0739C35.6492 42.8616 35.6485 42.6492 35.6486 42.3731C35.7636 42.3095 35.878 42.3095 36.1211 42.3095C53.2606 42.3094 70.2713 42.3094 87.2821 42.3094Z" fill="white"/>
<path d="M35.649 43.1336C35.7173 43.0736 35.7848 43.0732 35.9029 43.0727C36.2426 43.1744 36.5309 43.3629 36.8207 43.3651C39.7973 43.3868 42.7742 43.3784 45.751 43.3784C59.4648 43.3784 73.1786 43.3826 86.8923 43.3661C87.5911 43.3653 88.2896 43.1859 89.049 43.0822C89.1103 43.1957 89.111 43.3167 89.1074 43.498C88.467 43.5502 87.8309 43.5348 87.1948 43.5348C70.2408 43.5333 53.2869 43.5334 36.3329 43.5336C36.1547 43.5336 35.9766 43.5394 35.7275 43.547C35.6538 43.4321 35.651 43.3127 35.649 43.1336Z" fill="#F4EAE7"/>
<path d="M89.1085 34.3448C84.5351 34.3817 79.9651 34.3725 75.3952 34.3683C71.1551 34.3644 66.9149 34.3658 62.6036 34.3566C62.5514 34.3032 62.5815 34.2677 62.655 34.227C71.4484 34.2125 80.2096 34.2126 89.0421 34.2127C89.113 34.2421 89.1125 34.2715 89.1085 34.3448Z" fill="#F5EAE8"/>
<path d="M87.2826 54.8241C87.638 54.14 88.0186 53.5018 88.4396 52.8249C88.219 53.4563 87.967 54.1302 87.6835 54.7906C87.6545 54.8583 87.4376 54.8454 87.2826 54.8241Z" fill="#EFEDED"/>
<path d="M35.773 34.3988C35.7867 35.5894 35.7709 36.7591 35.7154 37.9773C35.6699 36.8538 35.6641 35.6817 35.665 34.4383C35.6718 34.367 35.7434 34.3779 35.773 34.3988Z" fill="#F5514A"/>
<path d="M36.2816 52.8315C36.3152 52.8324 36.3494 52.8751 36.3824 52.9597C36.3482 52.9589 36.3151 52.9161 36.2816 52.8315Z" fill="#EFEDED"/>
<path d="M36.4272 53.1663C36.4736 53.147 36.5093 53.1811 36.531 53.2696C36.4849 53.2866 36.4514 53.2518 36.4272 53.1663Z" fill="#EFEDED"/>
<path d="M52.2903 20.6096C52.2494 20.7856 52.2429 20.9459 52.1603 21.014C51.4403 21.6076 51.1605 22.3005 51.3635 23.2625C51.4803 23.816 50.9804 24.1211 50.4747 23.8186C49.7167 23.3654 49.0611 23.3787 48.3045 23.8256C47.7722 24.1402 47.3077 23.8138 47.426 23.1779C47.5866 22.3148 47.3911 21.7062 46.7301 21.1205C46.2518 20.6966 46.4782 20.0831 47.1187 20.0251C47.9692 19.9482 48.4943 19.6139 48.8152 18.7896C49.0581 18.1657 49.7458 18.1866 49.9994 18.8269C50.3126 19.6177 50.814 19.97 51.6434 20.0271C51.8697 20.0427 52.0747 20.368 52.2903 20.6096Z" fill="#F3FDFC"/>
<path d="M39.7929 21.8665C39.5122 21.5641 39.2315 21.3341 39.0257 21.0499C38.6916 20.5882 38.8683 20.0704 39.4236 20.0313C40.3073 19.969 40.8488 19.6087 41.1945 18.7701C41.4428 18.1678 42.1013 18.1777 42.3375 18.7915C42.6589 19.627 43.2042 19.9403 44.0474 20.0312C44.7156 20.1032 44.8921 20.6339 44.3983 21.1101C43.7987 21.6885 43.5563 22.2646 43.7313 23.1187C43.8767 23.8283 43.3937 24.1456 42.763 23.7863C42.0478 23.379 41.4448 23.3344 40.7336 23.8078C40.1815 24.1754 39.7578 23.8662 39.7639 23.1851C39.7677 22.7614 39.8044 22.3381 39.7929 21.8665Z" fill="#F3FDFD"/>
<path d="M56.0747 23.7814C55.2686 24.032 54.9112 23.8302 55.0624 23.1079C55.242 22.2503 54.9812 21.6814 54.3899 21.1035C53.8994 20.6242 54.0795 20.0996 54.7555 20.0305C55.6055 19.9435 56.1367 19.6123 56.4596 18.7834C56.6966 18.175 57.3653 18.1721 57.6016 18.7799C57.9371 19.6429 58.51 19.9549 59.3765 20.0313C59.9344 20.0805 60.1602 20.6604 59.746 21.0359C59.056 21.6614 58.8202 22.3084 59.0051 23.2363C59.1303 23.8647 58.6031 24.1437 58.0102 23.7869C57.3624 23.3971 56.7639 23.2686 56.0747 23.7814Z" fill="#F3FDFC"/>
<path d="M59.0548 27.625C59.3782 27.7894 59.7588 27.8902 59.8659 28.1191C59.9475 28.2934 59.7425 28.686 59.5593 28.8836C59.1139 29.3639 58.7372 29.8012 58.9882 30.5438C59.0732 30.7954 58.9636 31.2627 58.7717 31.4137C58.5957 31.5521 58.1179 31.5014 57.8974 31.3514C57.2773 30.9296 56.758 31.051 56.1483 31.3761C55.3302 31.8123 54.882 31.4988 55.0758 30.585C55.2292 29.8613 55.0575 29.3933 54.5229 28.9281C54.3163 28.7483 54.139 28.3105 54.2194 28.0885C54.2998 27.8665 54.7084 27.6643 54.9919 27.6349C55.6712 27.5643 56.0927 27.2779 56.3507 26.6314C56.4546 26.3709 56.7892 26.046 57.0262 26.04C57.2548 26.0341 57.6002 26.3574 57.7054 26.6136C57.9557 27.2227 58.3432 27.5659 59.0548 27.625Z" fill="#F2FDFC"/>
<path d="M52.1434 28.6775C51.4732 29.2549 51.1342 29.8314 51.3541 30.7509C51.5322 31.4959 51.023 31.8065 50.3351 31.3981C49.6634 30.9994 49.1119 31.0166 48.4458 31.4045C47.7506 31.8094 47.2783 31.4754 47.4377 30.6595C47.5873 29.8939 47.4017 29.393 46.8365 28.8744C46.22 28.3088 46.4328 27.7471 47.2723 27.6396C47.9574 27.5519 48.4511 27.3284 48.7078 26.6236C48.8023 26.3642 49.1464 26.038 49.383 26.0329C49.6153 26.0278 49.9783 26.348 50.0691 26.6022C50.334 27.3437 50.8651 27.5751 51.5719 27.6391C52.187 27.6947 52.4452 28.0122 52.1434 28.6775Z" fill="#F1FCFC"/>
<path d="M43.1357 31.619C43.0844 31.6047 43.0331 31.5905 42.9082 31.5413C42.7407 31.4756 42.6469 31.4447 42.553 31.4139C42.553 31.4139 42.5145 31.44 42.5077 31.3897C42.3579 31.2735 42.2149 31.2076 42.0718 31.1417C42.0718 31.1417 42.0651 31.1547 42.0374 31.105C41.6173 31.1888 41.225 31.3224 40.8327 31.4559C40.8327 31.4559 40.8409 31.4632 40.7934 31.4597C40.6716 31.5055 40.5974 31.5549 40.5232 31.6042C40.5232 31.6042 40.5349 31.6133 40.4757 31.5973C39.6162 31.4703 39.7843 30.9 39.806 30.3625C39.8183 30.0579 39.7104 29.7484 39.6566 29.4412C39.6566 29.4412 39.635 29.4775 39.6365 29.4119C39.4967 29.2215 39.3554 29.0968 39.2141 28.972C39.2141 28.972 39.2027 28.9719 39.1932 28.9341C39.1372 28.8602 39.0908 28.8242 39.0443 28.7881C39.0443 28.7881 39.0367 28.7423 39.0053 28.6747C38.7113 27.9719 39.0638 27.7664 39.6092 27.6408C40.0556 27.538 40.6561 27.7016 40.8252 27.032C40.8252 27.032 40.8547 26.9793 40.9002 26.9171C41.4612 25.882 41.5667 25.8398 42.3377 26.2979C42.3377 26.2979 42.3591 26.2751 42.3498 26.3296C42.3939 26.455 42.4471 26.5257 42.5004 26.5964C42.5004 26.5964 42.513 26.5808 42.5066 26.6312C42.5522 26.7543 42.6041 26.8269 42.6561 26.8996C42.6561 26.8996 42.6554 26.8811 42.6579 26.9465C42.9151 27.2025 43.1461 27.45 43.4308 27.5688C43.7629 27.7074 44.1419 27.7336 44.5005 27.8086C44.5005 27.8086 44.5078 27.798 44.513 27.8552C44.7882 28.3619 44.5556 28.6747 44.2224 28.9451C43.7136 29.3581 43.4597 29.8186 43.7004 30.508C43.8762 31.012 43.7272 31.4537 43.1357 31.619Z" fill="#F3FDFC"/>
<path d="M43.17 31.6594C43.7272 31.4537 43.8763 31.012 43.7004 30.508C43.4597 29.8186 43.7136 29.3581 44.2224 28.9451C44.5556 28.6747 44.7883 28.3619 44.5076 27.8586C45.0661 28.1935 44.9132 28.6778 44.5403 29.0323C44.0147 29.5319 43.7888 29.9992 43.997 30.7579C44.117 31.1952 43.9588 31.7989 43.17 31.6594Z" fill="#40B0E5"/>
<path d="M39.6443 29.5106C39.7105 29.7484 39.8185 30.0579 39.8061 30.3625C39.7844 30.9 39.6163 31.4703 40.4729 31.5905C40.3536 31.6882 40.1779 31.7768 40.0021 31.8654C39.8285 31.4983 39.569 31.1454 39.5055 30.7602C39.4435 30.384 39.5817 29.9748 39.6443 29.5106Z" fill="#40B0E5"/>
<path d="M40.7753 27.056C40.6562 27.7016 40.0557 27.5381 39.6093 27.6408C39.0639 27.7664 38.7114 27.9719 38.9873 28.6602C38.8631 28.5452 38.5759 28.3056 38.6158 28.2219C38.7435 27.9537 38.9487 27.6468 39.2039 27.5314C39.6814 27.3155 40.215 27.2235 40.7753 27.056Z" fill="#40B0E5"/>
<path d="M44.4954 27.7519C44.1419 27.7336 43.7629 27.7074 43.4309 27.5688C43.1462 27.45 42.9152 27.2025 42.6556 26.9554C43.2639 27.1644 43.8771 27.4298 44.4954 27.7519Z" fill="#40B0E5"/>
<path d="M42.3425 26.2382C41.5668 25.8398 41.4613 25.882 40.903 26.887C40.7623 26.3856 40.9947 25.9751 41.4819 25.863C41.7329 25.8053 42.0564 26.0633 42.3425 26.2382Z" fill="#40B0E5"/>
<path d="M40.8934 31.4599C41.2251 31.3223 41.6174 31.1888 42.0435 31.1009C41.7029 31.2523 41.3285 31.3581 40.8934 31.4599Z" fill="#40B0E5"/>
<path d="M39.2012 29.0286C39.3556 29.0968 39.4969 29.2215 39.6484 29.3937C39.5017 29.3226 39.3449 29.2039 39.2012 29.0286Z" fill="#40B0E5"/>
<path d="M42.09 31.1906C42.2149 31.2076 42.3579 31.2735 42.528 31.3784C42.4061 31.3581 42.2571 31.2988 42.09 31.1906Z" fill="#40B0E5"/>
<path d="M42.5714 31.4665C42.6472 31.4447 42.741 31.4756 42.8686 31.5444C42.798 31.5612 42.6937 31.5402 42.5714 31.4665Z" fill="#40B0E5"/>
<path d="M40.5712 31.6071C40.5974 31.5549 40.6716 31.5055 40.7919 31.4544C40.7649 31.5051 40.692 31.5575 40.5712 31.6071Z" fill="#40B0E5"/>
<path d="M42.6607 26.8503C42.6044 26.8269 42.5525 26.7543 42.4977 26.6353C42.5516 26.6596 42.6083 26.7303 42.6607 26.8503Z" fill="#40B0E5"/>
<path d="M42.505 26.547C42.4473 26.5257 42.394 26.4549 42.3369 26.3381C42.3919 26.3606 42.4507 26.4291 42.505 26.547Z" fill="#40B0E5"/>
<path d="M39.0479 28.8366C39.0909 28.8241 39.1373 28.8602 39.1949 28.9395C39.1545 28.9502 39.103 28.9177 39.0479 28.8366Z" fill="#40B0E5"/>
<path d="M87.282 38.3378C87.479 38.2194 87.676 38.1008 87.8731 37.9823C87.9078 38.076 87.9425 38.1697 87.9772 38.2634C87.7857 38.2882 87.5943 38.313 87.3424 38.3378C87.282 38.3377 87.282 38.3378 87.282 38.3378Z" fill="#F5514A"/>
<path d="M87.2684 42.2489C70.2715 42.3095 53.2608 42.3095 36.1785 42.3094C36.2025 42.2106 36.2846 42.0502 36.3962 42.0261C36.6156 41.9787 36.8514 42.0045 37.0804 42.0045C53.4993 42.0041 69.9182 42.0031 86.3371 42.0118C86.6429 42.012 86.9487 42.127 87.2684 42.2489Z" fill="white"/>
<path d="M87.2913 31.6692C87.4448 31.6163 87.6076 31.6164 87.8314 31.6166C87.7645 32.0407 87.558 32.0243 87.2913 31.6692Z" fill="#F5EAE8"/>
</g>
<path d="M42.122 88.0175V71.5781H52.3261V74.0205H44.5644V77.9894H50.8114V80.4319H44.5644V85.575H52.3261V88.0175H42.122ZM55.0111 88.0175V71.5781H57.6532L65.2035 83.6023V71.5781H67.646V88.0175H65.0039L57.4535 75.9932V88.0175H55.0111ZM78.0897 88.3228C76.9468 88.3228 75.8822 88.1036 74.8958 87.6652C73.9173 87.219 73.0601 86.6045 72.3242 85.8216C71.5962 85.031 71.0247 84.119 70.6098 83.0856C70.2027 82.0523 69.9992 80.9524 69.9992 79.786C69.9992 78.557 70.2184 77.4258 70.6568 76.3925C71.0952 75.3591 71.694 74.4628 72.4534 73.7035C73.2127 72.9363 74.0777 72.3413 75.0484 71.9186C76.027 71.4959 77.0525 71.2845 78.125 71.2845C79.3383 71.2845 80.5048 71.5663 81.6242 72.13C82.7436 72.6936 83.7183 73.5391 84.5481 74.6663L82.364 75.8523C81.8003 75.1478 81.1428 74.6154 80.3912 74.2553C79.6476 73.8952 78.8843 73.7152 78.1015 73.7152C77.3421 73.7152 76.6219 73.8718 75.9409 74.1849C75.2598 74.4902 74.657 74.9207 74.1325 75.4766C73.608 76.0245 73.1931 76.6704 72.8878 77.4141C72.5904 78.1499 72.4416 78.9523 72.4416 79.8212C72.4416 80.6589 72.5865 81.4456 72.8761 82.1815C73.1736 82.9173 73.5806 83.5632 74.0973 84.119C74.6218 84.667 75.2246 85.0975 75.9056 85.4106C76.5945 85.7238 77.3304 85.8803 78.1132 85.8803C78.6925 85.8803 79.2483 85.7864 79.7806 85.5985C80.313 85.4106 80.8061 85.1445 81.2602 84.8C81.7221 84.4478 82.1252 84.0289 82.4697 83.5436C82.8141 83.0582 83.0881 82.5181 83.2916 81.9231H79.8041V79.7625H86.1568C86.1724 80.9368 85.9689 82.0406 85.5462 83.0739C85.1313 84.1072 84.552 85.0192 83.8083 85.8099C83.0724 86.5927 82.2152 87.2072 81.2367 87.6534C80.2582 88.0997 79.2092 88.3228 78.0897 88.3228ZM88.3807 88.0175V71.5781H90.8231V85.575H97.9038V88.0175H88.3807ZM100.842 88.0175V71.5781H103.285V88.0175H100.842ZM112.312 88.3228C111.412 88.3228 110.547 88.1818 109.717 87.9C108.888 87.6182 108.163 87.2151 107.545 86.6906C106.927 86.1582 106.484 85.5281 106.218 84.8L108.508 83.9428C108.641 84.3186 108.895 84.6552 109.271 84.9527C109.655 85.2423 110.109 85.4694 110.633 85.6337C111.166 85.7981 111.725 85.8803 112.312 85.8803C112.939 85.8803 113.526 85.7786 114.074 85.575C114.63 85.3715 115.076 85.0897 115.412 84.7296C115.757 84.3695 115.929 83.9468 115.929 83.4614C115.929 82.9604 115.749 82.5494 115.389 82.2284C115.037 81.9075 114.583 81.6531 114.027 81.4652C113.479 81.2773 112.907 81.1364 112.312 81.0425C111.162 80.8546 110.128 80.5806 109.212 80.2205C108.304 79.8604 107.584 79.3555 107.052 78.7057C106.527 78.056 106.265 77.2105 106.265 76.1694C106.265 75.1908 106.543 74.3375 107.099 73.6095C107.662 72.8815 108.402 72.3178 109.318 71.9186C110.242 71.5115 111.24 71.308 112.312 71.308C113.197 71.308 114.05 71.4489 114.872 71.7307C115.702 72.0047 116.43 72.4079 117.056 72.9402C117.69 73.4647 118.145 74.1027 118.419 74.8542L116.105 75.6879C115.972 75.3043 115.718 74.9716 115.342 74.6898C114.966 74.4002 114.512 74.1731 113.98 74.0088C113.455 73.8444 112.9 73.7622 112.312 73.7622C111.686 73.7543 111.099 73.8561 110.551 74.0675C110.011 74.271 109.569 74.5528 109.224 74.9129C108.88 75.273 108.708 75.6918 108.708 76.1694C108.708 76.7565 108.868 77.2027 109.189 77.508C109.51 77.8133 109.94 78.0403 110.481 78.1891C111.029 78.33 111.639 78.4591 112.312 78.5766C113.393 78.7488 114.391 79.0345 115.307 79.4338C116.231 79.833 116.97 80.3653 117.526 81.0307C118.09 81.6883 118.372 82.4985 118.372 83.4614C118.372 84.4321 118.09 85.2854 117.526 86.0212C116.97 86.7493 116.231 87.3168 115.307 87.7239C114.391 88.1231 113.393 88.3228 112.312 88.3228ZM130.961 71.5781H133.403V88.0175H130.961V80.4319H123.528V88.0175H121.085V71.5781H123.528V77.9894H130.961V71.5781Z" fill="black"/>
<defs>
<clipPath id="clip0_10_81">
<rect width="40" height="46" fill="white" transform="translate(100.934 14.0175)"/>
</clipPath>
<clipPath id="clip1_10_81">
<rect width="54.1831" height="41.9728" fill="white" transform="translate(35.4915 16.031)"/>
</clipPath>
</defs>
</svg>
