<svg width="176" height="109" viewBox="0 0 176 109" fill="none" xmlns="http://www.w3.org/2000/svg">
<rect x="0.491455" y="0.0174561" width="175.443" height="108" rx="21" fill="white"/>
<g clip-path="url(#clip0_10_79)">
<path d="M103.238 22.5234H132.158C135.624 22.5234 138.44 25.3396 138.44 28.8057V35.7379" stroke="black" stroke-width="3" stroke-miterlimit="10" stroke-linecap="round" stroke-linejoin="round"/>
<path d="M109.845 15.9162L103.238 22.5234L109.845 29.1307M138.44 51.1187H109.52C106.054 51.1187 103.238 48.3025 103.238 44.8364V37.9042" stroke="black" stroke-width="3" stroke-miterlimit="10" stroke-linecap="round" stroke-linejoin="round"/>
<path d="M131.838 57.7259L138.445 51.1187L131.838 44.5114" stroke="black" stroke-width="3" stroke-miterlimit="10" stroke-linecap="round" stroke-linejoin="round"/>
</g>
<g clip-path="url(#clip1_10_79)">
<path d="M35.5951 45.5836C35.5309 42.3706 35.5152 39.2077 35.5107 36.0448C35.5072 33.6115 35.5178 31.1782 35.5279 28.6772C35.9027 28.2744 36.361 28.3684 36.789 28.3679C42.1956 28.3609 47.6023 28.3634 53.0089 28.3634C63.7247 28.3634 74.4405 28.3624 85.1563 28.3668C85.6135 28.367 86.0855 28.2884 86.573 28.5705C86.6358 32.6562 86.6462 36.6928 86.652 40.7293C86.6543 42.2855 86.646 43.8418 86.6308 45.4641C86.2829 45.8672 85.8487 45.7868 85.4441 45.7877C81.889 45.7953 78.3338 45.7919 74.7786 45.7919C62.1893 45.792 49.6001 45.7928 37.0108 45.7885C36.5537 45.7884 36.0817 45.8666 35.5951 45.5836Z" fill="#FEC704"/>
<path d="M86.6401 28.5505C85.654 28.6161 84.6807 28.6093 83.7073 28.6093C67.694 28.6087 51.6807 28.609 35.6007 28.6092C35.4952 26.7378 35.4075 24.8587 35.7667 23.0098C36.357 19.9712 38.8636 17.7487 41.9368 17.485C42.6386 17.4248 43.3433 17.362 44.0467 17.3618C55.6033 17.3589 67.1599 17.3611 78.7165 17.3753C80.7834 17.3778 82.7117 17.8164 84.3067 19.2712C86.0182 20.8322 86.5654 22.8447 86.631 25.0511C86.665 26.1937 86.6472 27.3378 86.6401 28.5505Z" fill="#FE4C4C"/>
<path d="M35.5272 45.6026C38.5099 45.5375 41.478 45.545 44.4461 45.545C58.4599 45.5446 72.4737 45.5422 86.5532 45.5354C86.643 47.6899 86.8667 49.8763 86.1623 51.9696C85.2347 54.7265 83.2316 56.2357 80.3839 56.6559C79.4194 56.7982 78.4442 56.8038 77.4708 56.8039C66.5687 56.8046 55.6666 56.8074 44.7645 56.8015C43.0378 56.8006 41.302 56.8194 39.6821 56.0652C37.2702 54.9423 35.9726 53.0228 35.6469 50.4106C35.4505 48.8354 35.5226 47.2523 35.5272 45.6026Z" fill="#FE4C4C"/>
<path d="M43.9938 35.0321C43.9942 34.3021 43.9889 33.645 43.9962 32.9881C44.006 32.1091 44.4464 31.4717 45.3062 31.4384C47.2965 31.3613 49.2918 31.3316 51.284 31.4565C52.0481 31.5044 52.3505 31.9698 52.4976 32.6673C52.6462 33.372 52.5923 34.0737 52.5801 34.7745C52.5543 36.2556 52.7093 37.7433 52.4769 39.217C52.1655 41.192 50.6091 42.6136 48.415 42.7275C46.6481 42.8191 45.0765 41.8529 44.2794 39.9544C43.8448 38.9192 44.0385 37.8445 43.9978 36.7841C43.9763 36.2252 43.9938 35.6648 43.9938 35.0321Z" fill="#FE4E49"/>
<path d="M39.762 35.0452C39.7621 34.7071 39.7425 34.4379 39.7662 34.1727C39.8377 33.3721 40.4424 32.8281 41.2245 32.8413C41.9896 32.8543 42.5838 33.3602 42.5996 34.1534C42.6384 36.0974 42.6387 38.0428 42.6114 39.9871C42.6004 40.7652 41.9898 41.3032 41.2413 41.3172C40.4283 41.3325 39.7936 40.7854 39.7733 39.929C39.7353 38.3255 39.7622 36.7204 39.762 35.0452Z" fill="#FDFCEE"/>
<path d="M56.8392 36.2013C56.8367 37.4654 56.8505 38.6568 56.8264 39.8475C56.8083 40.7404 56.2121 41.308 55.3574 41.3054C54.5589 41.303 53.9732 40.7312 53.9616 39.8435C53.9371 37.972 53.9409 36.0999 53.9613 34.2283C53.97 33.4331 54.593 32.8511 55.359 32.8444C56.1941 32.8372 56.7866 33.3793 56.8268 34.2326C56.8565 34.8633 56.8369 35.4964 56.8392 36.2013Z" fill="#FEFCEF"/>
</g>
<path d="M39.622 88.0175V71.5781H49.8261V74.0205H42.0644V77.9894H48.3114V80.4319H42.0644V85.575H49.8261V88.0175H39.622ZM58.2788 88.3228C57.3786 88.3228 56.5136 88.1818 55.6838 87.9C54.854 87.6182 54.1299 87.2151 53.5114 86.6906C52.893 86.1582 52.4507 85.5281 52.1845 84.8L54.4743 83.9428C54.6074 84.3186 54.8618 84.6552 55.2376 84.9527C55.6211 85.2423 56.0752 85.4694 56.5997 85.6337C57.132 85.7981 57.6917 85.8803 58.2788 85.8803C58.9051 85.8803 59.4922 85.7786 60.0402 85.575C60.596 85.3715 61.0422 85.0897 61.3788 84.7296C61.7233 84.3695 61.8955 83.9468 61.8955 83.4614C61.8955 82.9604 61.7155 82.5494 61.3554 82.2284C61.0031 81.9075 60.549 81.6531 59.9932 81.4652C59.4453 81.2773 58.8738 81.1364 58.2788 81.0425C57.1281 80.8546 56.0948 80.5806 55.1788 80.2205C54.2708 79.8604 53.5506 79.3555 53.0182 78.7057C52.4937 78.056 52.2315 77.2105 52.2315 76.1694C52.2315 75.1908 52.5094 74.3375 53.0652 73.6095C53.6288 72.8815 54.3686 72.3178 55.2845 71.9186C56.2083 71.5115 57.2064 71.308 58.2788 71.308C59.1634 71.308 60.0167 71.4489 60.8387 71.7307C61.6685 72.0047 62.3965 72.4079 63.0228 72.9402C63.6569 73.4647 64.1109 74.1027 64.3849 74.8542L62.0716 75.6879C61.9386 75.3043 61.6841 74.9716 61.3084 74.6898C60.9326 74.4002 60.4786 74.1731 59.9463 74.0088C59.4218 73.8444 58.866 73.7622 58.2788 73.7622C57.6526 73.7543 57.0655 73.8561 56.5175 74.0675C55.9773 74.271 55.535 74.5528 55.1906 74.9129C54.8461 75.273 54.6739 75.6918 54.6739 76.1694C54.6739 76.7565 54.8344 77.2027 55.1554 77.508C55.4763 77.8133 55.9069 78.0403 56.447 78.1891C56.995 78.33 57.6056 78.4591 58.2788 78.5766C59.3591 78.7488 60.3573 79.0345 61.2732 79.4338C62.1969 79.833 62.9367 80.3653 63.4925 81.0307C64.0561 81.6883 64.3379 82.4985 64.3379 83.4614C64.3379 84.4321 64.0561 85.2854 63.4925 86.0212C62.9367 86.7493 62.1969 87.3168 61.2732 87.7239C60.3573 88.1231 59.3591 88.3228 58.2788 88.3228ZM67.0515 88.0175V71.5781H72.7114C73.596 71.5781 74.3945 71.7973 75.1068 72.2356C75.827 72.674 76.3985 73.2651 76.8212 74.0088C77.2518 74.7524 77.4671 75.5744 77.4671 76.4747C77.4671 77.3906 77.2479 78.2204 76.8095 78.9641C76.3789 79.6999 75.8035 80.287 75.0833 80.7254C74.3631 81.1638 73.5725 81.383 72.7114 81.383H69.494V88.0175H67.0515ZM69.494 78.9406H72.4648C72.9345 78.9406 73.3611 78.8231 73.7447 78.5883C74.1361 78.3534 74.4453 78.0403 74.6724 77.6489C74.9072 77.2575 75.0246 76.8152 75.0246 76.322C75.0246 75.8288 74.9072 75.3865 74.6724 74.9951C74.4453 74.5959 74.1361 74.2827 73.7447 74.0557C73.3611 73.8209 72.9345 73.7035 72.4648 73.7035H69.494V78.9406ZM82.7187 71.5781H85.5721L91.549 88.0175H88.9656L87.8266 84.894H80.4641L79.3368 88.0175H76.7418L82.7187 71.5781ZM81.3683 82.4516H86.9224L84.1395 74.819L81.3683 82.4516ZM93.6096 88.0175V71.5781H96.2516L103.802 83.6023V71.5781H106.244V88.0175H103.602L96.052 75.9932V88.0175H93.6096ZM101.747 70.2394C101.457 70.2394 101.121 70.1416 100.737 69.9459C100.361 69.7502 99.9818 69.531 99.5982 69.2883C99.2146 69.0378 98.8741 68.8343 98.5766 68.6777C98.2791 68.5211 98.0639 68.4859 97.9308 68.572C97.7899 68.6581 97.692 68.7912 97.6372 68.9713C97.5824 69.1435 97.5942 69.3666 97.6724 69.6406L96.1929 70.0398C96.005 69.4918 95.962 68.983 96.0637 68.5133C96.1733 68.0436 96.4043 67.6678 96.7565 67.386C97.1088 67.0964 97.5511 66.9516 98.0834 66.9516C98.3731 66.9516 98.7019 67.0377 99.0698 67.2099C99.4377 67.3821 99.8057 67.5778 100.174 67.797C100.542 68.0162 100.874 68.2119 101.172 68.3841C101.469 68.5564 101.688 68.6425 101.829 68.6425C102.001 68.6425 102.119 68.5838 102.182 68.4663C102.244 68.3411 102.272 68.1963 102.264 68.0319C102.256 67.8675 102.225 67.7148 102.17 67.5739L103.673 67.0925C103.869 67.6796 103.904 68.2119 103.779 68.6894C103.661 69.1591 103.422 69.5349 103.062 69.8167C102.71 70.0985 102.272 70.2394 101.747 70.2394ZM116.7 88.3228C115.588 88.3228 114.543 88.1036 113.565 87.6652C112.586 87.219 111.725 86.6045 110.981 85.8216C110.238 85.0388 109.654 84.1346 109.232 83.1091C108.809 82.0758 108.598 80.972 108.598 79.7978C108.598 78.6235 108.809 77.5237 109.232 76.4981C109.654 75.4648 110.238 74.5567 110.981 73.7739C111.725 72.9911 112.586 72.3805 113.565 71.9421C114.543 71.4959 115.588 71.2728 116.7 71.2728C117.819 71.2728 118.868 71.4959 119.847 71.9421C120.825 72.3805 121.687 72.9911 122.43 73.7739C123.174 74.5567 123.753 75.4648 124.168 76.4981C124.591 77.5237 124.802 78.6235 124.802 79.7978C124.802 80.972 124.591 82.0758 124.168 83.1091C123.753 84.1346 123.174 85.0388 122.43 85.8216C121.687 86.6045 120.825 87.219 119.847 87.6652C118.868 88.1036 117.819 88.3228 116.7 88.3228ZM116.7 85.8803C117.483 85.8803 118.215 85.7199 118.896 85.3989C119.577 85.0779 120.176 84.6396 120.692 84.0837C121.217 83.5201 121.624 82.8743 121.914 82.1462C122.211 81.4104 122.36 80.6276 122.36 79.7978C122.36 78.968 122.211 78.1851 121.914 77.4493C121.624 76.7134 121.217 76.0676 120.692 75.5118C120.176 74.9481 119.577 74.5098 118.896 74.1966C118.215 73.8757 117.483 73.7152 116.7 73.7152C115.917 73.7152 115.185 73.8757 114.504 74.1966C113.823 74.5176 113.22 74.9599 112.696 75.5235C112.179 76.0793 111.772 76.7252 111.475 77.461C111.185 78.1891 111.04 78.968 111.04 79.7978C111.04 80.6354 111.185 81.4221 111.475 82.158C111.772 82.886 112.179 83.5319 112.696 84.0955C113.22 84.6513 113.823 85.0897 114.504 85.4106C115.185 85.7238 115.917 85.8803 116.7 85.8803ZM127.025 88.0175V71.5781H129.467V85.575H136.548V88.0175H127.025Z" fill="black"/>
<defs>
<clipPath id="clip0_10_79">
<rect width="40" height="46" fill="white" transform="translate(100.934 14.0175)"/>
</clipPath>
<clipPath id="clip1_10_79">
<rect width="51.8867" height="40.607" fill="white" transform="translate(35.4915 16.714)"/>
</clipPath>
</defs>
</svg>
